<?xml version="1.0" encoding="UTF-8"?>
<svg width="100px" height="94px" viewBox="0 0 100 94" version="1.1" xmlns="http://www.w3.org/2000/svg" xmlns:xlink="http://www.w3.org/1999/xlink">
    <!-- Generator: Sketch 52.6 (67491) - http://www.bohemiancoding.com/sketch -->
    <title>drum</title>
    <desc>Created with Sketch.</desc>
    <g id="Page-1" stroke="none" stroke-width="1" fill="none" fill-rule="evenodd">
        <g id="Desktop-HD" transform="translate(-524.000000, -264.000000)" fill="#137F75" fill-rule="nonzero">
            <g id="drum" transform="translate(524.468750, 264.129820)">
                <path d="M93.9714836,0.965796856 C85.8001055,9.13717499 77.6280923,17.3074946 69.456079,25.4812015 C62.9139803,23.9289826 56.0541128,23.3980695 49.5384771,23.3252008 C44.4162818,23.3822616 36.927228,23.85116 29.5795928,25.4397709 C21.4215521,17.2817301 13.2635114,9.12538304 5.10652915,0.966707186 C2.45535115,-1.68616445 -1.65489566,2.42300267 0.998187675,5.07504866 C8.36741669,12.4442777 15.7355872,19.8124482 23.1043928,27.1812538 C14.0978396,30.1550697 6.56835012,35.3261688 5.734657,44.1788127 C5.69000001,44.388864 5.66436469,44.612151 5.66436469,44.8527958 L5.66436469,74.3623143 C5.66436469,74.615365 5.69413672,74.8485789 5.74375395,75.0660631 C6.51946115,81.5446504 12.1700502,85.4338775 17.7448702,88.0454668 C27.5222402,92.6218873 38.8780805,93.7771599 49.5386825,93.8855527 C60.3404916,93.9980208 71.3696715,92.2837102 81.3303778,88.0454668 C86.9397056,85.6595548 92.5606772,81.4222851 93.3329759,75.0677568 C93.3825931,74.8494469 93.4131929,74.6154073 93.4131929,74.3623567 L93.4131929,44.8528381 C93.7811992,38.0418744 87.1918268,33.0105004 81.9248255,30.1268707 C79.959105,29.0501617 77.9015893,28.1437904 75.7845423,27.3681467 C83.2164359,19.937735 90.6468476,12.5066882 98.0770475,5.07564143 C100.730766,2.42361661 96.6207521,-1.68578338 93.9695529,0.967299959 L93.9714836,0.965796856 Z M20.0230308,82.8150692 C16.0180013,81.0833882 11.7227245,78.3561447 11.4746066,74.3608536 L11.4746066,55.7539155 C13.292282,57.280497 15.3018042,58.5632369 17.1525268,59.5785727 C18.0886638,60.0913003 19.0504171,60.55523 20.0236659,60.9976505 C20.0228388,68.2701304 20.0228388,75.5423987 20.0228388,82.8138201 L20.0230308,82.8150692 Z M47.2419045,88.0539138 C40.0001217,87.9340021 32.7799328,86.8953175 25.8343249,84.8493397 L25.8343249,63.1919486 C32.7255247,65.3221213 40.1383649,66.1327386 47.2419045,66.3327995 L47.2419045,88.0558191 L47.2419045,88.0539138 Z M73.2434762,84.8857529 C66.7401194,86.9382935 59.8662794,87.7511761 53.0529869,87.9918843 L53.0529869,66.3366102 C58.8236337,66.1538498 66.2919405,65.3607786 73.2434762,63.4000543 L73.2434762,84.8859646 L73.2434762,84.8857529 Z M87.6038296,74.3608536 C87.3516046,78.4213498 83.0570477,81.0469115 79.0545586,82.7695527 L79.0545586,61.4064311 C82.2955459,60.0625931 85.2344305,58.3822294 87.6038296,56.2965147 L87.6038296,74.3608536 Z M87.6038296,44.851335 C87.9122833,50.583875 79.9130211,54.3367642 75.6459011,56.1038634 C67.4448843,59.5027824 58.3333256,60.4694261 49.5384771,60.5670219 C41.1744477,60.6604705 32.8095715,59.3712291 24.9002838,56.6570478 C19.7838045,54.903032 11.8135458,51.1470095 11.4735481,44.8511233 C11.1650943,39.1194302 19.1660502,35.3656941 23.4314765,33.5994417 C24.9051318,32.9883138 26.4160895,32.4822125 27.9418452,32.0191085 C32.6175553,36.6948185 37.2941122,41.3713754 41.9698223,46.0470855 C44.6210003,48.6999571 48.7312471,44.5899644 46.0781638,41.938744 C42.2435565,38.1041368 38.4087375,34.2686826 34.5732834,30.4338637 C39.5170116,29.5448733 44.5763306,29.1925755 49.5382654,29.1371723 C54.5719682,29.1925797 59.5364434,29.611031 64.4230114,30.5157299 C60.615714,34.3238741 56.8073581,38.1313831 52.9983671,41.9403742 C50.3471891,44.5915522 54.4571395,48.701799 57.1067086,46.0487156 C61.7650589,41.3903653 66.4234091,36.7320151 71.0800658,32.0736648 C72.1170801,32.3722107 73.1483149,32.696373 74.1770939,33.0478451 C79.2927263,34.8001885 87.2638318,38.5578834 87.6029828,44.8512292 L87.6038296,44.851335 Z" id="Shape"></path>
            </g>
        </g>
    </g>
</svg>