<?xml version="1.0" encoding="UTF-8"?>
<svg width="99px" height="69px" viewBox="0 0 99 69" version="1.1" xmlns="http://www.w3.org/2000/svg" xmlns:xlink="http://www.w3.org/1999/xlink">
    <!-- Generator: Sketch 52.6 (67491) - http://www.bohemiancoding.com/sketch -->
    <title>piano</title>
    <desc>Created with Sketch.</desc>
    <g id="Page-1" stroke="none" stroke-width="1" fill="none" fill-rule="evenodd">
        <g id="Desktop-HD" transform="translate(-819.000000, -279.000000)" fill="#137F75" fill-rule="nonzero">
            <g id="piano" transform="translate(819.550774, 279.129820)">
                <path d="M0.127168822,0.152602586 L0.127168822,68.5185611 L98.0471614,68.5185611 L98.0471614,0.152602586 L0.127168822,0.152602586 Z M19.5244835,39.1425633 L19.5244835,3.00118419 L24.2048048,3.00118419 L24.2048048,39.1425633 L27.2309141,39.1425633 L27.2309141,65.6699795 L16.4991372,65.6699795 L16.4991372,39.1425633 L19.5244835,39.1425633 Z M30.0784784,39.1425633 L33.1045876,39.1425633 L33.1055811,3.00118419 L40.812266,3.00118419 L40.812266,65.6699795 L30.0784544,65.6699795 L30.0784784,39.1425633 Z M43.6605935,3.00118419 L51.3673021,3.00118419 L51.3673021,39.1425633 L54.3934114,39.1425633 L54.3944051,65.6699795 L43.6605935,65.6699795 L43.6605935,3.00118419 Z M57.2437733,39.1425633 L60.2698826,39.1425633 L60.2708761,3.00118419 L64.9511974,3.00118419 L64.9511974,39.1425633 L67.9773066,39.1425633 L67.9773066,65.6699795 L57.2455298,65.6699795 L57.2455298,39.1425633 L57.2437733,39.1425633 Z M70.8248948,39.1425633 L73.8510041,39.1425633 L73.8510041,3.00118419 L78.5313254,3.00118419 L78.5313254,39.1425633 L81.5574347,39.1425633 L81.5574347,65.6699795 L70.8236231,65.6699795 L70.8248948,39.1425633 Z M2.97524175,3.00118419 L10.6221573,3.00118419 L10.6221573,39.1425633 L13.6482666,39.1425633 L13.6492603,65.6699795 L2.97598111,65.6699795 L2.97524175,3.00118419 Z M95.1980712,65.6699795 L84.406525,65.6699795 L84.4055315,39.1425633 L87.4316408,39.1425633 L87.4326342,3.00118419 L95.1978168,3.00118419 L95.1980712,65.6699795 Z" id="Shape"></path>
            </g>
        </g>
    </g>
</svg>